<?xml version="1.0" encoding="UTF-8"?>
<svg id="Layer_1" data-name="Layer 1" xmlns="http://www.w3.org/2000/svg" viewBox="0 0 1024 1024">
  <defs>
    <style>
      .cls-1 {
        stroke-width: 0px;
        fill:white;
      }
    </style>
  </defs>
  <path class="cls-1" d="m788.48,389.12h-266.24c-11.26,0-20.48-9.22-20.48-20.48v-40.96c0-11.26,9.22-20.48,20.48-20.48h266.24c11.26,0,20.48,9.22,20.48,20.48v40.96c0,11.26-9.22,20.48-20.48,20.48Zm0,184.32h-327.68c-11.26,0-20.48-9.22-20.48-20.48v-40.96c0-11.26,9.22-20.48,20.48-20.48h327.68c11.26,0,20.48,9.22,20.48,20.48v40.96c0,11.26-9.22,20.48-20.48,20.48Zm-450.56,0h-40.96c-11.26,0-20.48-9.22-20.48-20.48v-40.96c0-11.26,9.22-20.48,20.48-20.48h40.96c11.26,0,20.48,9.22,20.48,20.48v40.96c0,11.26-9.22,20.48-20.48,20.48Zm0,184.32h-40.96c-11.26,0-20.48-9.22-20.48-20.48v-40.96c0-11.26,9.22-20.48,20.48-20.48h40.96c11.26,0,20.48,9.22,20.48,20.48v40.96c0,11.26-9.22,20.48-20.48,20.48Zm450.56,0h-327.68c-11.26,0-20.48-9.22-20.48-20.48v-40.96c0-11.26,9.22-20.48,20.48-20.48h327.68c11.26,0,20.48,9.22,20.48,20.48v40.96c0,11.26-9.22,20.48-20.48,20.48Zm-346.45-467.39l-141.42,141.42-25.85-25.85,141.42-141.42,25.85,25.85Zm-25.85,141.42l-141.42-141.42,25.85-25.85,141.42,141.42-25.85,25.85Z"/>
</svg>